<svg width="54" height="54" viewBox="0 0 54 54" fill="none" xmlns="http://www.w3.org/2000/svg">
<path d="M39.4417 32.8644C39.4417 35.1324 40.087 36.0369 41.7745 36.0369C45.5356 36.0369 47.9305 31.2444 47.9305 23.274C47.9305 11.0916 39.0529 5.2596 27.9694 5.2596C16.5673 5.2596 6.19661 12.906 6.19661 27.3564C6.19661 41.1588 15.2686 48.6756 29.2006 48.6756C33.931 48.6756 37.1062 48.1572 41.9635 46.5372L43.0057 50.8761C38.2105 52.434 33.0859 52.8849 29.1358 52.8849C10.8622 52.8849 1.07471 42.8409 1.07471 27.3537C1.07471 11.7369 12.4174 1.1097 28.0342 1.1097C44.299 1.1097 52.9147 10.8297 52.9147 22.7529C52.9147 32.8617 49.7422 40.5729 39.763 40.5729C35.2243 40.5729 32.2462 38.7585 31.8574 34.7382C30.691 39.2094 27.5806 40.5729 23.3659 40.5729C17.7283 40.5729 12.9979 36.2286 12.9979 27.4833C12.9979 18.6705 17.1478 13.2273 24.5998 13.2273C28.5526 13.2273 31.015 14.7825 32.1112 17.2449L33.9931 13.8105H39.4363V32.8644H39.4417ZM31.474 24.3108C31.474 20.7495 28.8145 19.2564 26.6113 19.2564C24.2137 19.2564 21.5596 21.1977 21.5596 26.9028C21.5596 31.4388 23.5684 33.966 26.6113 33.966C28.7497 33.966 31.474 32.6052 31.474 28.8468V24.3108Z" fill="#DFE0E2"/>
</svg>
