<svg width="54" height="54" viewBox="0 0 54 54" fill="none" xmlns="http://www.w3.org/2000/svg">
<path d="M5.625 20.25H48.375M15.75 13.5H15.7702M24.75 13.5H24.7702M5.625 27C5.625 16.9245 5.625 11.8845 8.75475 8.75475C11.8845 5.625 16.9222 5.625 27 5.625C37.0755 5.625 42.1155 5.625 45.2452 8.75475C48.375 11.8845 48.375 16.9222 48.375 27C48.375 37.0755 48.375 42.1155 45.2452 45.2452C42.1155 48.375 37.0778 48.375 27 48.375C16.9245 48.375 11.8845 48.375 8.75475 45.2452C5.625 42.1155 5.625 37.0778 5.625 27Z" stroke="#DFE0E2" stroke-width="1.5" stroke-linecap="round" stroke-linejoin="round"/>
<path d="M18 29.25L20.7608 31.6283C21.9195 32.6295 22.5 33.129 22.5 33.75C22.5 34.371 21.9195 34.8705 20.7608 35.8717L18 38.25M27 38.25H36" stroke="#DFE0E2" stroke-width="1.5" stroke-linecap="round" stroke-linejoin="round"/>
</svg>
