<svg width="73" height="73" viewBox="0 0 73 73" fill="none" xmlns="http://www.w3.org/2000/svg">
<path d="M36.4999 6.08333C32.5055 6.08333 28.5503 6.87008 24.86 8.39866C21.1696 9.92724 17.8165 12.1677 14.9921 14.9922C9.28786 20.6964 6.08325 28.433 6.08325 36.5C6.08325 49.9442 14.8128 61.3504 26.8883 65.3958C28.4091 65.6392 28.8958 64.6962 28.8958 63.875V58.7346C20.4703 60.5596 18.6758 54.6587 18.6758 54.6587C17.2766 51.1304 15.2995 50.1875 15.2995 50.1875C12.5316 48.3017 15.5124 48.3625 15.5124 48.3625C18.5541 48.5754 20.1662 51.4954 20.1662 51.4954C22.8124 56.1187 27.2837 54.75 29.0174 54.02C29.2912 52.0429 30.082 50.7046 30.9337 49.9442C24.1812 49.1837 17.0941 46.5679 17.0941 34.9792C17.0941 31.6029 18.2499 28.8958 20.227 26.7362C19.9228 25.9758 18.8583 22.8125 20.5312 18.7062C20.5312 18.7062 23.0862 17.885 28.8958 21.8087C31.2987 21.1396 33.9145 20.805 36.4999 20.805C39.0853 20.805 41.7012 21.1396 44.1041 21.8087C49.9137 17.885 52.4687 18.7062 52.4687 18.7062C54.1416 22.8125 53.077 25.9758 52.7728 26.7362C54.7499 28.8958 55.9057 31.6029 55.9057 34.9792C55.9057 46.5983 48.7883 49.1533 42.0053 49.9137C43.1003 50.8567 44.1041 52.7121 44.1041 55.5408V63.875C44.1041 64.6962 44.5908 65.6696 46.142 65.3958C58.2174 61.32 66.9166 49.9442 66.9166 36.5C66.9166 32.5056 66.1298 28.5504 64.6013 24.86C63.0727 21.1697 60.8322 17.8166 58.0077 14.9922C55.1833 12.1677 51.8302 9.92724 48.1399 8.39866C44.4496 6.87008 40.4943 6.08333 36.4999 6.08333Z" fill="#DFE0E2"/>
</svg>
