<svg width="54" height="54" viewBox="0 0 54 54" fill="none" xmlns="http://www.w3.org/2000/svg">
<path d="M27 25.875C25.5082 25.875 24.0774 25.2824 23.0225 24.2275C21.9676 23.1726 21.375 21.7418 21.375 20.25C21.375 18.7582 21.9676 17.3274 23.0225 16.2725C24.0774 15.2176 25.5082 14.625 27 14.625C28.4918 14.625 29.9226 15.2176 30.9775 16.2725C32.0324 17.3274 32.625 18.7582 32.625 20.25C32.625 20.9887 32.4795 21.7201 32.1968 22.4026C31.9141 23.0851 31.4998 23.7051 30.9775 24.2275C30.4551 24.7498 29.8351 25.1641 29.1526 25.4468C28.4701 25.7295 27.7387 25.875 27 25.875ZM27 4.5C22.8228 4.5 18.8168 6.15937 15.8631 9.11307C12.9094 12.0668 11.25 16.0728 11.25 20.25C11.25 32.0625 27 49.5 27 49.5C27 49.5 42.75 32.0625 42.75 20.25C42.75 16.0728 41.0906 12.0668 38.1369 9.11307C35.1832 6.15937 31.1772 4.5 27 4.5Z" fill="#DFE0E2"/>
</svg>
