<svg width="73" height="73" viewBox="0 0 73 73" fill="none" xmlns="http://www.w3.org/2000/svg">
<path d="M21.1091 15.2083C21.1082 16.8217 20.4665 18.3687 19.3251 19.509C18.1837 20.6493 16.6361 21.2894 15.0227 21.2886C13.4093 21.2878 11.8623 20.6461 10.722 19.5047C9.58172 18.3633 8.94158 16.8157 8.94238 15.2023C8.94319 13.5889 9.58488 12.0419 10.7263 10.9016C11.8677 9.7613 13.4154 9.12116 15.0288 9.12196C16.6422 9.12277 18.1892 9.76447 19.3294 10.9059C20.4697 12.0473 21.1099 13.5949 21.1091 15.2083ZM21.2916 25.7933H9.12488V63.875H21.2916V25.7933ZM40.5149 25.7933H28.4091V63.875H40.3932V43.8913C40.3932 32.7588 54.902 31.7246 54.902 43.8913V63.875H66.9165V39.7546C66.9165 20.9875 45.4424 21.6871 40.3932 30.9033L40.5149 25.7933Z" fill="#DFE0E2"/>
</svg>
