<svg width="48" height="48" viewBox="0 0 48 48" fill="none" xmlns="http://www.w3.org/2000/svg">
<path d="M16.0019 5.99133C12.2884 5.99133 8.72704 7.4642 6.10123 10.0859C3.47541 12.7076 2.00024 16.2634 2.00024 19.9711C2.00024 23.6787 3.47541 27.2346 6.10123 29.8563C8.72704 32.478 12.2884 33.9508 16.0019 33.9508H18.1421C17.9506 32.6263 17.9506 31.2812 18.1421 29.9566H16.0019C13.3494 29.9566 10.8056 28.9046 8.92998 27.0319C7.0544 25.1593 6.00071 22.6194 6.00071 19.9711C6.00071 17.3228 7.0544 14.7829 8.92998 12.9102C10.8056 11.0376 13.3494 9.98555 16.0019 9.98555H32.0037C33.4869 9.98525 34.9517 10.3143 36.2918 10.949C37.6319 11.5836 38.8138 12.5079 39.752 13.6549C40.6902 14.8019 41.3611 16.1429 41.7162 17.5807C42.0712 19.0185 42.1015 20.5172 41.8049 21.9682C42.984 23.1213 43.9497 24.4736 44.6572 25.9624C45.6696 23.8314 46.1256 21.4792 45.9826 19.1249C45.8396 16.7706 45.1023 14.4907 43.8394 12.4974C42.5765 10.5041 40.829 8.86225 38.7595 7.72469C36.6901 6.58714 34.3661 5.99085 32.0037 5.99133H16.0019ZM32.0037 25.9624C30.4123 25.9624 28.886 26.5936 27.7606 27.7172C26.6353 28.8408 26.003 30.3647 26.003 31.9537C26.003 33.5427 26.6353 35.0666 27.7606 36.1902C28.886 37.3138 30.4123 37.9451 32.0037 37.9451C33.5952 37.9451 35.1215 37.3138 36.2469 36.1902C37.3722 35.0666 38.0044 33.5427 38.0044 31.9537C38.0044 30.3647 37.3722 28.8408 36.2469 27.7172C35.1215 26.5936 33.5952 25.9624 32.0037 25.9624ZM22.0026 31.9537C22.0029 30.3968 22.368 28.8615 23.0684 27.4706C23.7689 26.0796 24.7854 24.8714 26.0369 23.9425C27.2883 23.0136 28.7399 22.3897 30.2758 22.1208C31.8117 21.8518 33.3894 21.9451 34.8827 22.3933C36.3761 22.8415 37.7438 23.6321 38.8766 24.702C40.0094 25.7719 40.876 27.0915 41.407 28.5554C41.9381 30.0192 42.119 31.5868 41.9352 33.1328C41.7515 34.6789 41.2082 36.1607 40.3487 37.4598L45.4193 42.5244L42.591 45.3483L37.5184 40.2857C36.0109 41.2805 34.2617 41.8489 32.4566 41.9306C30.6514 42.0123 28.8579 41.6042 27.2665 40.7496C25.675 39.895 24.3453 38.6259 23.4184 37.0772C22.4916 35.5284 22.0023 33.7579 22.0026 31.9537Z" fill="#DFE0E2"/>
</svg>
