<svg width="73" height="73" viewBox="0 0 73 73" fill="none" xmlns="http://www.w3.org/2000/svg">
<path d="M37.0171 3.869C36.4335 3.87859 35.8771 4.11759 35.4684 4.53428C35.0597 4.95096 34.8315 5.51183 34.8332 6.0955V48.4173C34.8324 48.7099 34.8894 48.9998 35.001 49.2702C35.1126 49.5407 35.2766 49.7865 35.4835 49.9934C35.6904 50.2003 35.9362 50.3643 36.2067 50.4759C36.4772 50.5875 36.767 50.6446 37.0597 50.6437C37.3523 50.6446 37.6422 50.5875 37.9127 50.4759C38.1831 50.3643 38.4289 50.2003 38.6358 49.9934C38.8427 49.7865 39.0067 49.5407 39.1183 49.2702C39.2299 48.9998 39.287 48.7099 39.2862 48.4173V6.0955C39.287 5.79952 39.2287 5.50635 39.1147 5.23323C39.0006 4.96011 38.8331 4.71256 38.6219 4.50512C38.4108 4.29768 38.1603 4.13454 37.8853 4.0253C37.6102 3.91606 37.313 3.86292 37.0171 3.869ZM70.7066 16.5467C70.4156 16.5523 70.1288 16.6175 69.864 16.7383L50.7563 25.2671C50.3654 25.4437 50.0337 25.7294 49.801 26.0897C49.5684 26.4501 49.4446 26.87 49.4446 27.299C49.4446 27.7279 49.5684 28.1478 49.801 28.5082C50.0337 28.8686 50.3654 29.1542 50.7563 29.3308L69.864 37.89C70.1501 38.0216 70.4617 38.0881 70.7765 38.0847C71.2856 38.0831 71.7787 37.9071 72.1737 37.586C72.5688 37.265 72.8419 36.8182 72.9475 36.3203C73.0531 35.8223 72.9849 35.3032 72.7543 34.8494C72.5236 34.3956 72.1444 34.0345 71.6799 33.8264L57.1225 27.302L71.6799 20.802C72.2174 20.56 72.6373 20.1152 72.8482 19.5648C73.059 19.0143 73.0436 18.4028 72.8053 17.8637C72.626 17.4605 72.3306 17.1198 71.9567 16.8852C71.5829 16.6506 71.1477 16.5328 70.7066 16.5467ZM2.26908 31.8523C1.92589 31.8461 1.58591 31.9193 1.27569 32.0662C0.965481 32.2132 0.693436 32.4298 0.480814 32.6993C0.268191 32.9687 0.120747 33.2837 0.0500018 33.6196C-0.0207436 33.9554 -0.0128752 34.3031 0.0729925 34.6355C5.35333 54.9447 23.7219 69.131 44.7338 69.131C45.3243 69.131 45.8906 68.8964 46.3082 68.4789C46.7257 68.0613 46.9603 67.495 46.9603 66.9045C46.9603 66.314 46.7257 65.7477 46.3082 65.3301C45.8906 64.9126 45.3243 64.678 44.7338 64.678C35.5078 64.6817 26.5411 61.6248 19.2387 55.9862C11.9362 50.3477 6.71039 42.446 4.37999 33.5192C4.25838 33.0492 3.98611 32.6321 3.60487 32.3316C3.22363 32.0311 2.75443 31.8608 2.26908 31.8523Z" fill="#DFE0E2"/>
</svg>
