<svg width="54" height="54" viewBox="0 0 54 54" fill="none" xmlns="http://www.w3.org/2000/svg">
<path d="M37.4152 31.2547L38.4412 30.2355L36.0584 27.8415L35.0369 28.8607L37.4152 31.2547ZM41.8814 29.808L46.1812 32.1457L47.7899 29.1802L43.4924 26.8447L41.8814 29.808ZM47.0069 36.7897L43.8119 39.969L46.1902 42.3607L49.3852 39.1838L47.0069 36.7897ZM41.8634 40.9905C38.6009 41.2965 30.1634 41.0242 21.0239 31.9387L18.6434 34.3305C28.6154 44.2463 38.1082 44.7322 42.1784 44.352L41.8634 40.9905ZM21.0239 31.9387C12.3142 23.2762 10.8697 15.993 10.6897 12.8317L7.31915 13.023C7.54415 17.001 9.3329 25.074 18.6434 34.3305L21.0239 31.9387ZM24.1177 18.0338L24.7634 17.3902L22.3874 14.9985L21.7417 15.6398L24.1177 18.0338ZM25.2764 9.2115L22.4414 5.4225L19.7392 7.4475L22.5742 11.2342L25.2764 9.2115ZM12.8992 4.59675L9.36665 8.10675L11.7472 10.5007L15.2774 6.99075L12.8992 4.59675ZM22.9297 16.8367C21.7372 15.6397 21.7372 15.6397 21.7372 15.6442H21.7327L21.7259 15.6532C21.619 15.7611 21.5232 15.8794 21.4402 16.0065C21.3187 16.1865 21.1859 16.4227 21.0734 16.722C20.7995 17.4945 20.7313 18.3249 20.8754 19.1318C21.1769 21.078 22.5179 23.6498 25.9514 27.0653L28.3319 24.6712C25.1167 21.4762 24.3517 19.5322 24.2099 18.6142C24.1424 18.1777 24.2122 17.9617 24.2324 17.9122C24.2459 17.8822 24.2459 17.8777 24.2324 17.8987C24.2123 17.9298 24.1898 17.9591 24.1649 17.9865L24.1424 18.009L24.1199 18.0292L22.9297 16.8367ZM25.9514 27.0653C29.3872 30.4808 31.9724 31.8127 33.9209 32.1097C34.9177 32.2627 35.7209 32.1412 36.3307 31.914C36.6722 31.7891 36.9913 31.6098 37.2757 31.383L37.3882 31.2817L37.4039 31.2683L37.4107 31.2615L37.4129 31.257C37.4129 31.257 37.4152 31.2547 36.2249 30.0577C35.0324 28.8607 35.0392 28.8585 35.0392 28.8585L35.0437 28.854L35.0482 28.8495L35.0617 28.8383L35.0842 28.8157L35.1697 28.7483C35.1907 28.7348 35.1854 28.7363 35.1539 28.7528C35.0977 28.773 34.8772 28.8427 34.4339 28.7752C33.5024 28.6312 31.5449 27.8662 28.3319 24.6712L25.9514 27.0653ZM22.4414 5.42025C20.1464 2.36025 15.6374 1.87425 12.8992 4.59675L15.2774 6.99075C16.4744 5.8005 18.5984 5.92425 19.7392 7.4475L22.4414 5.42025ZM10.6919 12.834C10.6469 12.0555 11.0047 11.241 11.7472 10.503L9.3644 8.109C8.15615 9.3105 7.2044 11.0115 7.31915 13.023L10.6919 12.834ZM43.8119 39.969C43.1954 40.5855 42.5294 40.932 41.8657 40.9927L42.1784 44.352C43.8322 44.1967 45.1844 43.3642 46.1924 42.363L43.8119 39.969ZM24.7634 17.3902C26.9797 15.1875 27.1439 11.7067 25.2787 9.21375L22.5764 11.2365C23.4832 12.4492 23.3482 14.04 22.3852 15.0007L24.7634 17.3902ZM46.1834 32.148C48.0217 33.147 48.3074 35.5005 47.0092 36.792L49.3897 39.1838C52.4047 36.1845 51.4754 31.1828 47.7922 29.1825L46.1834 32.148ZM38.4412 30.2377C39.3052 29.3782 40.6957 29.1667 41.8837 29.8102L43.4947 26.847C41.0557 25.5195 38.0317 25.8862 36.0607 27.8437L38.4412 30.2377Z" fill="#DFE0E2"/>
</svg>
